<?xml version="1.0" standalone="no"?>
<!DOCTYPE svg PUBLIC "-//W3C//DTD SVG 1.1//EN"
  "http://www.w3.org/Graphics/SVG/1.1/DTD/svg11.dtd">
<svg width="588.3300170898438mm" height="233.65800476074213mm" viewBox="-294.1650085449219 -116.82900238037107 588.3300170898438 233.65800476074213" xmlns="http://www.w3.org/2000/svg" version="1.1">
	<title>svgOutput</title>
	<desc>made with tinkercad</desc>
<path d="M 293.1650085449219 110.17099761962888 L 262.1440124511719 110.17099761962888 L 143.16400146484375 110.17099761962888 L 143.16400146484375 -39.82899856567382 L 262.1440124511719 -39.82899856567382 L 293.1650085449219 -39.82899856567382 L 293.1650085449219 110.17099761962888 M 133.16400146484375 110.17099761962888 L 131.07200622558594 110.17099761962888 L 125.25044250488281 110.17099761962888 L 113.99877166748047 110.17099761962888 L 102.36205291748047 110.17099761962888 L 98.30400085449219 110.17099761962888 L 87.16300201416016 110.17099761962888 L 87.16300201416016 65.53600311279295 L 87.16300201416016 32.76800155639648 L 87.16300201416016 23.170999526977536 L 131.07200622558594 23.170999526977536 L 133.16400146484375 23.170999526977536 L 133.16400146484375 110.17099761962888 M 133.16400146484375 10.170999526977537 L 131.07200622558594 10.170999526977537 L 87.16300201416016 10.170999526977537 L 87.16300201416016 1.1102230246251565e-16 L 87.16300201416016 -32.76800155639648 L 87.16300201416016 -65.53600311279295 L 87.16300201416016 -76.82900238037108 L 131.07200622558594 -76.82900238037108 L 133.16400146484375 -76.82900238037108 L 133.16400146484375 10.170999526977537 M 77.16300201416016 -115.82900238037107 L 77.16300201416016 -76.82900238037108 L 77.16300201416016 -69.82900238037108 L 65.53600311279297 -69.82900238037108 L 0 -69.82900238037108 L -54.8380012512207 -69.82900238037108 L -54.8380012512207 -85.17099761962889 L -54.8380012512207 -115.82900238037107 L 0 -115.82900238037107 L 65.53600311279297 -115.82900238037107 L 77.16300201416016 -115.82900238037107 M 77.16300201416016 -55.828998565673814 L 77.16300201416016 -32.76800155639648 L 77.16300201416016 -9.82900047302246 L 65.53600311279297 -9.82900047302246 L 0 -9.82900047302246 L -54.8380012512207 -9.82900047302246 L -54.8380012512207 -55.828998565673814 L 0 -55.828998565673814 L 65.53600311279297 -55.828998565673814 L 77.16300201416016 -55.828998565673814 M 77.16300201416016 50.17100143432616 L 65.53600311279297 50.17100143432616 L 0 50.17100143432616 L -54.8380012512207 50.17100143432616 L -54.8380012512207 4.171000003814696 L 0 4.171000003814696 L 65.53600311279297 4.171000003814696 L 77.16300201416016 4.171000003814696 L 77.16300201416016 32.76800155639648 L 77.16300201416016 50.17100143432616 M 77.16300201416016 110.17099761962888 L 65.53600311279297 110.17099761962888 L 0 110.17099761962888 L -54.8380012512207 110.17099761962888 L -54.8380012512207 64.17099761962889 L 0 64.17099761962889 L 65.53600311279297 64.17099761962889 L 77.16300201416016 64.17099761962889 L 77.16300201416016 65.53600311279295 L 77.16300201416016 110.17099761962888 M -86.83799743652344 5.828999996185302 L -131.07200622558594 5.828999996185302 L -221.83900451660156 5.828999996185302 L -221.83900451660156 -85.17099761962889 L -131.07200622558594 -85.17099761962889 L -86.83799743652344 -85.17099761962889 L -86.83799743652344 -69.82900238037108 L -86.83799743652344 -55.828998565673814 L -86.83799743652344 -9.82900047302246 L -86.83799743652344 1.1102230246251565e-16 L -86.83799743652344 4.171000003814696 L -86.83799743652344 5.828999996185302 M -258.3479919433594 78.00299835205077 L -262.1440124511719 78.00299835205077 L -262.3479919433594 78.00299835205077 L -262.3479919433594 1.1102230246251565e-16 L -262.3479919433594 -51.997001647949205 L -262.1440124511719 -51.997001647949205 L -245.1649932861328 -51.997001647949205 L -240.34800720214844 -51.997001647949205 L -240.34800720214844 -47.99700164794921 L -245.1649932861328 -47.99700164794921 L -258.3479919433594 -47.99700164794921 L -258.3479919433594 78.00299835205077 M -221.83900451660156 115.82900238037107 L -221.83900451660156 24.829000473022454 L -131.07200622558594 24.829000473022454 L -86.83799743652344 24.829000473022454 L -86.83799743652344 50.17100143432616 L -86.83799743652344 64.17099761962889 L -86.83799743652344 110.17099761962888 L -86.83799743652344 115.82900238037107 L -131.07200622558594 115.82900238037107 L -221.83900451660156 115.82900238037107 M -241.1649932861328 88.66200256347655 L -245.1649932861328 88.66200256347655 L -262.1440124511719 88.66200256347655 L -263.1650085449219 88.66200256347655 L -263.1650085449219 84.66200256347655 L -262.3479919433594 84.66200256347655 L -262.1440124511719 84.66200256347655 L -258.3479919433594 84.66200256347655 L -245.1649932861328 84.66200256347655 L -245.1649932861328 -41.338001251220696 L -241.1649932861328 -41.338001251220696 L -241.1649932861328 88.66200256347655 M -270.5299987792969 -52.58499908447264 L -270.5299987792969 -51.997001647949205 L -270.5299987792969 -48.58499908447264 L -288.5299987792969 -48.58499908447264 L -288.5299987792969 -41.338001251220696 L -288.5299987792969 1.1102230246251565e-16 L -288.5299987792969 77.41500091552733 L -292.5299987792969 77.41500091552733 L -292.5299987792969 1.1102230246251565e-16 L -292.5299987792969 -51.997001647949205 L -292.5299987792969 -52.58499908447264 L -270.5299987792969 -52.58499908447264 M -271.1650085449219 -41.338001251220696 L -271.1650085449219 1.1102230246251565e-16 L -271.1650085449219 84.66200256347655 L -271.1650085449219 88.66200256347655 L -293.1650085449219 88.66200256347655 L -293.1650085449219 84.66200256347655 L -292.5299987792969 84.66200256347655 L -288.5299987792969 84.66200256347655 L -275.1650085449219 84.66200256347655 L -275.1650085449219 1.1102230246251565e-16 L -275.1650085449219 -41.338001251220696 L -271.1650085449219 -41.338001251220696 M 114.53099822998047 -45.57300186157226 L 111.21299743652344 -46.285999298095696 L 107.822998046875 -46.11600112915038 L 104.59300231933594 -45.075000762939446 L 101.74299621582031 -43.23300170898437 L 99.46600341796875 -40.71599960327148 L 97.91899871826172 -37.695999145507805 L 97.20600128173828 -34.377998352050774 L 97.28673553466797 -32.76800155639648 L 97.3759994506836 -30.98800086975097 L 98.41699981689453 -27.759000778198235 L 100.25900268554688 -24.908000946044915 L 102.7760009765625 -22.63199996948242 L 105.7969970703125 -21.08399963378906 L 109.11399841308594 -20.37100028991699 L 112.50399780273438 -20.541000366210934 L 115.73400115966797 -21.583000183105465 L 118.58399963378906 -23.424999237060543 L 120.86100006103516 -25.941999435424798 L 122.40799713134766 -28.96199989318847 L 123.12100219726562 -32.27999877929687 L 123.09651947021484 -32.76800155639648 L 122.95099639892578 -35.66899871826171 L 121.91000366210938 -38.89899826049804 L 120.06800079345703 -41.7490005493164 L 117.5510025024414 -44.02600097656249 L 114.53099822998047 -45.57300186157226 M 114.53099822998047 54.42699813842772 L 111.21299743652344 53.71400070190428 L 107.822998046875 53.883998870849595 L 104.59300231933594 54.92499923706053 L 101.74299621582031 56.76699829101561 L 99.46600341796875 59.2840003967285 L 98.30400085449219 61.55241775512694 L 97.91899871826172 62.30400085449217 L 97.22447967529297 65.53600311279295 L 97.20600128173828 65.6220016479492 L 97.3759994506836 69.01200103759764 L 98.30400085449219 71.89138793945311 L 98.41699981689453 72.2419967651367 L 100.25900268554688 75.09200286865233 L 102.7760009765625 77.3679962158203 L 105.7969970703125 78.91600036621092 L 109.11399841308594 79.62899780273436 L 112.50399780273438 79.45899963378905 L 115.73400115966797 78.41699981689452 L 118.58399963378906 76.57499694824217 L 120.86100006103516 74.05799865722655 L 122.40799713134766 71.03800201416014 L 123.12100219726562 67.72000122070311 L 123.01144409179688 65.53600311279295 L 122.95099639892578 64.33100128173827 L 121.91000366210938 61.10100173950194 L 120.06800079345703 58.25099945068358 L 117.5510025024414 55.973999023437486 L 114.53099822998047 54.42699813842772 z" fill="none" stroke="rgb(255,0,0)" stroke-width="0.001mm" />
</svg>